<!DOCTYPE svg PUBLIC "-//W3C//DTD SVG 1.1//EN" "http://www.w3.org/Graphics/SVG/1.1/DTD/svg11.dtd">
<!-- Uploaded to: SVG Repo, www.svgrepo.com, Transformed by: SVG Repo Mixer Tools -->
<svg fill="#ffffff" width="800px" height="800px" viewBox="-307.2 -307.2 2534.40 2534.40" xmlns="http://www.w3.org/2000/svg" stroke="#ffffff" stroke-width="46.08">
<g id="SVGRepo_bgCarrier" stroke-width="0" transform="translate(230.39999999999998,230.39999999999998), scale(0.76)">
<rect x="-307.2" y="-307.2" width="2534.40" height="2534.40" rx="1267.2" fill="#e5562e" strokewidth="0"/>
</g>
<g id="SVGRepo_tracerCarrier" stroke-linecap="round" stroke-linejoin="round" stroke="#0090ff" stroke-width="230.4"> <path d="M960 0v213.333c411.627 0 746.667 334.934 746.667 746.667S1371.627 1706.667 960 1706.667 213.333 1371.733 213.333 960c0-197.013 78.4-382.507 213.334-520.747v254.08H640V106.667H53.333V320h191.04C88.64 494.08 0 720.96 0 960c0 529.28 430.613 960 960 960s960-430.72 960-960S1489.387 0 960 0" fill-rule="evenodd"/> </g>
<g id="SVGRepo_iconCarrier"> <path d="M960 0v213.333c411.627 0 746.667 334.934 746.667 746.667S1371.627 1706.667 960 1706.667 213.333 1371.733 213.333 960c0-197.013 78.4-382.507 213.334-520.747v254.08H640V106.667H53.333V320h191.04C88.64 494.08 0 720.96 0 960c0 529.28 430.613 960 960 960s960-430.72 960-960S1489.387 0 960 0" fill-rule="evenodd"/> </g>
</svg>